<?xml version="1.0" encoding="UTF-8" standalone="no"?>
<svg width="44px" height="39px" viewBox="0 0 44 39" version="1.1" xmlns="http://www.w3.org/2000/svg" xmlns:xlink="http://www.w3.org/1999/xlink" xmlns:sketch="http://www.bohemiancoding.com/sketch/ns">
    <!-- Generator: Sketch 3.2 (9964) - http://www.bohemiancoding.com/sketch -->
    <title>Group 2</title>
    <desc>Created with Sketch.</desc>
    <defs></defs>
    <g id="Page-1" stroke="none" stroke-width="1" fill="none" fill-rule="evenodd" sketch:type="MSPage">
        <g id="Group-2" sketch:type="MSLayerGroup" fill="#EA4A3E">
            <path d="M5.5,0 C2.75,0 0,2.78571429 0,5.57142857 L0,33.4285714 C0,36.2142857 2.75,39 5.5,39 L38.5,39 C41.25,39 44,36.2142857 44,33.4285714 L44,5.57142857 C44,2.78571429 41.25,0 38.5,0 L5.5,0 L5.5,0 Z M2.75,2.78571429 L41.25,2.78571429 L41.25,36.2142857 L2.75,36.2142857 L2.75,2.78571429 L2.75,2.78571429 Z" id="Shape" sketch:type="MSShapeGroup"></path>
            <path d="M5.5,5.57142857 L5.5,16.7142857 L22,16.7142857 L22,5.57142857 L5.5,5.57142857 L5.5,5.57142857 Z M8.25,8.35714286 L19.25,8.35714286 L19.25,13.9285714 L8.25,13.9285714 L8.25,8.35714286 L8.25,8.35714286 Z" id="Shape" sketch:type="MSShapeGroup"></path>
            <path d="M8.25,19.5 L8.25,33.4285714 L24.75,33.4285714 L24.75,19.5 L8.25,19.5 L8.25,19.5 Z M11,22.2857143 L22,22.2857143 L22,30.6428571 L11,30.6428571 L11,22.2857143 L11,22.2857143 Z" id="Shape" sketch:type="MSShapeGroup"></path>
            <path d="M27.5,5.57142857 L27.5,22.2857143 L38.5,22.2857143 L38.5,5.57142857 L27.5,5.57142857 L27.5,5.57142857 Z M30.25,8.35714286 L35.75,8.35714286 L35.75,19.5 L30.25,19.5 L30.25,8.35714286 L30.25,8.35714286 Z" id="Shape" sketch:type="MSShapeGroup"></path>
        </g>
    </g>
</svg>