<?xml version="1.0" encoding="UTF-8" standalone="no"?>
<svg width="44px" height="44px" viewBox="0 0 44 44" version="1.1" xmlns="http://www.w3.org/2000/svg" xmlns:xlink="http://www.w3.org/1999/xlink" xmlns:sketch="http://www.bohemiancoding.com/sketch/ns">
    <!-- Generator: Sketch 3.2 (9964) - http://www.bohemiancoding.com/sketch -->
    <title>Shape + Shape 2</title>
    <desc>Created with Sketch.</desc>
    <defs></defs>
    <g id="Page-1" stroke="none" stroke-width="1" fill="none" fill-rule="evenodd" sketch:type="MSPage">
        <g id="Shape-+-Shape-2" sketch:type="MSLayerGroup" fill="#EA4A3E">
            <path d="M16.3991631,23.0400872 L4.03126496,35.4003297 C2.64129476,36.7958409 2.55619454,38.9603073 3.86106453,40.2703791 L6.66937168,43.0898814 C7.97424166,44.3714734 10.1301138,44.2860339 11.520084,42.9190025 L23.9163489,30.5302802 C25.3063191,29.134769 25.3630526,26.9703026 24.0865493,25.6602308 L23.9163489,25.5178317 L36.6530146,12.7873515 L38.5535861,13.3854278 L44,5.43955761 L41.503727,2.93333333 L33.5610401,8.37297921 L34.1283749,10.3096071 L21.4200759,23.0116074 L21.2782422,22.8692083 C19.9733722,21.5591365 17.7891333,21.644576 16.3991631,23.0400872 L16.3991631,23.0400872 Z" id="Shape" sketch:type="MSShapeGroup"></path>
            <path d="M23.4012038,17.5906594 L24.6361019,16.3213959 L24.0774575,15.7605586 C25.1359416,11.7461438 24.1362622,7.25944501 21.0196147,3.9534564 C17.2267135,-0.00192282305 11.5226605,-1.03504426 6.90649386,1.06071637 L13.8748473,8.14497768 C14.6687103,8.97147483 14.6981127,10.2702561 13.9042496,11.0672355 L11.0522231,13.90094 C10.2877624,14.6979194 8.96465732,14.6684016 8.17079427,13.8714222 L1.05542919,6.90523195 C-1.0321366,11.5395195 -0.00305487044,17.2364463 3.96626036,21.014719 C5.93621681,22.8743376 8.31780595,23.9960123 10.7876021,24.3502254 L18.1087835,17.0593398 C19.4318886,18.3581211 21.5488567,18.3581211 22.8719618,17.0593398 L23.4012038,17.5906594 L23.4012038,17.5906594 Z M27.1647027,35.1832416 L35.0151262,42.8578581 C36.6616569,44.4518169 39.3666718,44.3632636 41.0426048,42.6807515 L42.6597333,41.057275 C44.3650687,39.3452452 44.4532757,36.6591294 42.8655496,35.0061351 L32.3101113,24.2026366 L31.1634203,25.3538291 L31.7220646,25.8851487 C30.3989596,27.1839299 30.3989596,29.3387261 31.7220646,30.6375073 L27.1647027,35.1832416 L27.1647027,35.1832416 Z" id="Shape" sketch:type="MSShapeGroup"></path>
        </g>
    </g>
</svg>