<?xml version="1.0" encoding="UTF-8" standalone="no"?>
<svg width="44px" height="44px" viewBox="0 0 44 44" version="1.1" xmlns="http://www.w3.org/2000/svg" xmlns:xlink="http://www.w3.org/1999/xlink" xmlns:sketch="http://www.bohemiancoding.com/sketch/ns">
    <!-- Generator: Sketch 3.2 (9964) - http://www.bohemiancoding.com/sketch -->
    <title>icon-process-1</title>
    <desc>Created with Sketch.</desc>
    <defs></defs>
    <g id="Page-1" stroke="none" stroke-width="1" fill="none" fill-rule="evenodd" sketch:type="MSPage">
        <g id="icon-process-1" sketch:type="MSLayerGroup" fill="#FFFFFF">
            <g id="Page-1" sketch:type="MSShapeGroup">
                <path d="M0,16.4505721 C0,25.543252 7.43017522,32.9011443 16.6121804,32.9011443 C25.7941855,32.9011443 33.2243607,25.543252 33.2243607,16.4505721 C33.2243607,7.35789227 25.7941855,0 16.6121804,0 C7.43017522,0 0,7.35789227 0,16.4505721 L0,16.4505721 L0,16.4505721 Z M6.04079286,16.4505721 C6.04079286,10.6779168 10.7828153,5.98202623 16.6121804,5.98202623 C22.4415455,5.98202623 27.1835679,10.6779168 27.1835679,16.4505721 C27.1835679,22.2232275 22.4415455,26.919118 16.6121804,26.919118 C10.7828153,26.919118 6.04079286,22.2232275 6.04079286,16.4505721 L6.04079286,16.4505721 L6.04079286,16.4505721 Z M29.6602929,35.353775 L37.6341395,43.2500497 C38.5402585,44.1473536 40.5035161,44.2669941 42.1043262,43.4594206 C43.8259522,42.5920268 44.4904394,39.0925414 43.6145245,37.9858666 L35.7614937,30.0596818 C34.4023153,28.3847145 31.7141625,28.4146246 29.9623326,30.1494122 C28.3917264,31.704739 28.3313185,34.0377293 29.6602929,35.353775 L29.6602929,35.353775 L29.6602929,35.353775 Z" id="Shape-2"></path>
            </g>
        </g>
    </g>
</svg>