<?xml version="1.0" encoding="UTF-8" standalone="no"?>
<svg width="44px" height="42px" viewBox="0 0 44 42" version="1.1" xmlns="http://www.w3.org/2000/svg" xmlns:xlink="http://www.w3.org/1999/xlink" xmlns:sketch="http://www.bohemiancoding.com/sketch/ns">
    <!-- Generator: Sketch 3.2 (9964) - http://www.bohemiancoding.com/sketch -->
    <title>Shape 2</title>
    <desc>Created with Sketch.</desc>
    <defs></defs>
    <g id="Page-1" stroke="none" stroke-width="1" fill="none" fill-rule="evenodd" sketch:type="MSPage">
        <path d="M20.0575407,0.507823613 C18.520494,0.507823613 19.8506306,0.985775249 19.02299,1.10526316 C18.1953494,1.22475107 20.1166579,0.985775249 17.6337362,1.46372688 C15.1508145,1.9715505 14.6483184,5.19772404 14.5300841,6.39260313 C14.4118497,7.58748222 14.3822911,7.94594595 14.4414083,9.73826458 C14.677877,10.8136558 13.4955334,10.8136558 13.4955334,10.8136558 C11.9880452,10.7240398 11.7515765,15.4139403 11.7515765,15.4139403 C11.9584866,16.5789474 11.6629007,17.1465149 13.8797951,18.0426743 C14.9143458,21.059744 17.6041776,22.5832148 17.6041776,22.5832148 C17.6041776,22.5832148 17.722412,24.5248933 17.7815292,25.8990043 C17.5450604,25.8093883 17.3677089,29.4537696 10.5396742,30.4694168 C3.68208092,31.485064 2.38150289,33.7254623 1.08092486,34.9800853 C-0.219653179,36.2347084 0.0168155544,42 0.0168155544,42 L44,42 C44,42 43.7044141,36.2347084 42.4333946,34.9800853 C41.1328166,33.7254623 39.7140042,31.485064 32.8859695,30.4694168 C26.0283762,29.4537696 26.5013137,25.8990043 26.4421965,25.6899004 C26.4717551,25.1522048 26.7082239,22.8221906 26.7082239,22.8221906 C26.7082239,22.8221906 28.9251182,20.970128 29.9596689,17.9530583 C31.6149501,16.9075391 32.2356805,16.7581792 32.5312664,15.5334282 C32.5312664,15.5334282 33.2702312,10.9331437 31.4967157,10.9331437 C31.4967157,10.9331437 29.4571729,11.0526316 29.6936416,9.9772404 C29.9301104,8.90184922 29.8414346,8.54338549 29.7232002,7.3485064 C29.6049658,6.15362731 30.314372,2.71834993 27.8314503,2.24039829 C26.1466106,1.94167852 26.6786653,2.41963016 25.8510247,2.30014225 C25.0233841,2.18065434 24.0479506,0 22.5109038,0 L20.0575407,0.507823613 L20.0575407,0.507823613 Z" id="Shape-2" fill="#EA4A3E" sketch:type="MSShapeGroup"></path>
    </g>
</svg>